<?xml version="1.0" encoding="UTF-8" standalone="no"?>
<svg
   xmlns:dc="http://purl.org/dc/elements/1.1/"
   xmlns:cc="http://creativecommons.org/ns#"
   xmlns:rdf="http://www.w3.org/1999/02/22-rdf-syntax-ns#"
   xmlns:svg="http://www.w3.org/2000/svg"
   xmlns="http://www.w3.org/2000/svg"
   viewBox="0 0 831.50665 831.50665"
   height="831.50665"
   width="831.50665"
   xml:space="preserve"
   id="svg2"
   version="1.1"><metadata
     id="metadata8"><rdf:RDF><cc:Work
         rdf:about=""><dc:format>image/svg+xml</dc:format><dc:type
           rdf:resource="http://purl.org/dc/dcmitype/StillImage" /></cc:Work></rdf:RDF></metadata><defs
     id="defs6" /><g
     transform="matrix(1.3333333,0,0,-1.3333333,0,831.50667)"
     id="g10"><g
       transform="scale(0.1)"
       id="g12"><path
         id="path14"
         style="fill:#231f20;fill-opacity:1;fill-rule:nonzero;stroke:none"
         d="m 1495.43,3586.49 c 79.98,190.72 195.9,362.16 339.36,506.44 143.16,144.44 313.96,260.89 503.42,341.51 188.86,80.32 396.09,124.85 614.35,124.85 h 2.25 c 218.55,0 426.27,-44.53 615.23,-125.1 109.18,-46.48 211.23,-105.91 306.25,-174.56 l -124.9,-125.15 603.52,-205.76 -205.96,603.62 -118.56,-118.75 c -115.62,87.15 -240.82,162.06 -375.68,219.28 -214.84,91.7 -451.46,142.34 -699.22,142.44 h -2.93 c -247.56,0 -484.18,-50.64 -699.02,-142.24 -215.33,-91.6 -409.38,-223.98 -572.07,-387.7 -162.7,-163.81 -294.14,-358.54 -385.55,-575.09 -90.14,-214.8 -140.14,-451.13 -140.82,-698.34 h -0.39 v -5.52 c 0,-0.1 0,-0.1 0,-0.2 V 2965 c 0,-249.31 50.59,-486.96 141.21,-703.07 l 199.51,83.74 c -80.27,190.48 -124.7,399.65 -124.7,619.77 v 0.78 c 0,220.27 44.43,429.84 124.7,620.27" /><path
         id="path16"
         style="fill:#231f20;fill-opacity:1;fill-rule:nonzero;stroke:none"
         d="m 3067.6,3076.04 h -243.75 c -18.75,0 -36.82,-7.52 -50,-20.66 -13.28,-13.13 -20.7,-31.25 -20.7,-49.95 v -243.55 c 0,-18.56 7.42,-36.77 20.7,-49.95 13.18,-13.14 31.25,-20.66 50,-20.66 h 243.75 c 18.56,0 36.72,7.52 49.9,20.66 13.09,13.18 20.71,31.39 20.71,49.95 v 243.55 c 0,18.7 -7.62,36.82 -20.71,49.95 -13.18,13.14 -31.34,20.66 -49.9,20.66" /><path
         id="path18"
         style="fill:#231f20;fill-opacity:1;fill-rule:nonzero;stroke:none"
         d="m 4736.35,2975.65 h -0.19 c -0.79,246.73 -50.79,482.27 -140.73,696.24 l -199.41,-83.74 c 80.08,-190.38 124.61,-399.61 124.61,-619.88 v -0.68 c 0,-220.26 -44.44,-429.83 -124.61,-620.21 -80.08,-190.68 -196,-362.21 -339.36,-506.4 -143.36,-144.53 -313.77,-260.84 -503.32,-341.5 -189.25,-80.42 -396.77,-124.96 -615.43,-124.96 h -1.27 c -218.75,0 -426.46,44.54 -615.43,124.96 -109.27,46.53 -211.13,106.05 -306.25,174.85 l 125,125.1 -603.41,205.66 205.86,-603.61 118.55,118.75 c 115.72,-87.06 240.82,-162.06 375.59,-219.39 215.04,-91.7 451.75,-142.23 699.61,-142.33 h 4 v 0.1 c 247.17,0.34 483.2,50.78 697.75,142.23 215.34,91.51 409.28,223.88 571.98,387.8 162.69,163.62 294.23,358.34 385.54,575 90.82,216.35 141.31,454.54 141.31,703.95 v 3.96 l -0.39,4.1" /><path
         id="path20"
         style="fill:#231f20;fill-opacity:1;fill-rule:nonzero;stroke:none"
         d="m 2285.57,3201.33 660.06,460.55 660.06,-460.55 v -916.7 H 2285.57 Z M 2165.06,2164.12 c 13.09,-13.13 31.35,-20.7 49.81,-20.7 h 1461.42 c 18.65,0 36.82,7.57 49.9,20.7 13.19,13.14 20.71,31.35 20.71,49.91 v 888.72 l 17.58,-12.11 c 42.57,-29.84 101.17,-19.29 131.05,23.34 29.69,42.62 19.34,101.32 -23.34,131.05 l -872.66,608.94 c -32.51,22.56 -75.29,22.56 -107.81,0 l -270.31,-188.63 v 172.22 c 0,18.6 -7.52,36.77 -20.61,49.95 -13.18,13.14 -31.25,20.66 -50,20.66 h -216.5 c -18.46,0 -36.82,-7.52 -49.9,-20.66 -13.09,-13.18 -20.71,-31.3 -20.71,-49.95 v -421.78 l -244.53,-170.75 c -42.67,-29.73 -53.12,-88.43 -23.34,-131.05 29.69,-42.63 88.38,-53.18 130.96,-23.34 l 17.58,12.11 v -888.72 c 0,-18.56 7.52,-36.77 20.7,-49.91" /></g></g></svg>