<svg version="1.1" id="Layer_1" xmlns="http://www.w3.org/2000/svg" xmlns:xlink="http://www.w3.org/1999/xlink" x="0px" y="0px"
	 width="100%" viewBox="0 0 564 564" enable-background="new 0 0 564 564" xml:space="preserve">
<path fill="#FFFFFE" opacity="0" stroke="none" 
	d="
M1.000000,212.000000 
	C1.000000,141.348862 1.000000,71.197731 1.000000,1.023299 
	C188.942856,1.023299 376.885712,1.023299 564.914307,1.023299 
	C564.914307,188.901184 564.914307,376.802429 564.914307,564.851807 
	C377.000092,564.851807 189.000061,564.851807 1.000000,564.851807 
	C1.000000,447.447510 1.000000,329.973755 1.000000,212.000000 
M16.123951,250.447266 
	C16.064085,252.639786 16.004219,254.832321 15.747536,257.277557 
	C15.747536,257.277557 15.882401,257.568115 15.224223,258.177124 
	C14.828753,262.289825 14.239996,266.396301 14.106952,270.517456 
	C14.020758,273.187408 14.600398,275.878876 14.273040,278.864410 
	C14.221745,279.515045 14.170449,280.165649 13.966960,281.634857 
	C14.214670,287.808807 14.462379,293.982788 14.723757,300.784149 
	C14.817222,301.187958 14.910686,301.591736 14.859584,302.893768 
	C15.538535,308.377289 16.217487,313.860840 16.810240,319.910278 
	C16.898439,320.278076 16.986639,320.645844 16.951607,321.798523 
	C17.030043,322.851898 17.108479,323.905273 17.215851,325.743683 
	C17.375240,326.032410 17.632940,326.306000 17.680029,326.612030 
	C21.794910,353.351868 30.608597,378.592529 42.969849,402.516693 
	C60.669765,436.773315 84.703667,466.004425 114.628876,490.388153 
	C145.668228,515.679626 180.792145,532.728210 219.636337,541.948303 
	C232.582245,545.021118 245.887848,546.578491 259.808167,548.984741 
	C260.863800,548.951660 261.919434,548.918579 263.647369,549.048584 
	C264.103638,549.006104 264.559937,548.963684 265.802338,549.103882 
	C267.880585,549.345825 269.958832,549.587769 272.960632,549.967712 
	C275.441040,549.985413 277.925659,550.104309 280.400970,550.000183 
	C286.088806,549.761108 291.772034,549.413513 298.306488,549.343079 
	C326.709808,548.116821 354.108307,542.242004 380.787323,532.389709 
	C429.894928,514.254883 469.578033,483.648346 501.459625,442.477570 
	C521.067017,417.157318 535.301941,389.183319 544.271912,358.375977 
	C549.559143,340.216858 553.720947,321.817017 554.757019,303.049622 
	C555.698425,285.996735 555.252625,268.737915 553.728882,251.721176 
	C552.609802,239.224564 548.761230,226.972397 546.153687,213.852509 
	C539.337280,186.166153 526.599487,161.150146 511.219208,137.410767 
	C497.418335,116.109215 480.060333,97.907730 460.961914,81.289665 
	C435.440002,59.082249 406.818420,42.234699 374.973572,30.757477 
	C341.906921,18.839912 307.882629,14.067999 272.796875,15.618634 
	C256.367828,16.344723 240.289612,18.883854 224.360291,22.630854 
	C196.299561,29.231478 169.776596,39.772724 145.262299,54.963913 
	C129.422989,64.779327 113.826820,75.043808 100.387131,88.984467 
	C100.178055,89.297409 99.968987,89.610359 99.335442,90.016792 
	C99.050232,90.167664 98.904594,90.404404 98.326202,90.873123 
	C97.731888,91.335320 97.137581,91.797523 96.384727,92.394608 
	C96.384727,92.394608 96.249504,92.552864 95.744400,92.907448 
	C93.074944,95.905365 90.405487,98.903290 87.187538,102.120811 
	C86.431358,103.010338 85.675171,103.899872 84.381866,105.018272 
	C83.758774,105.733833 83.135681,106.449402 82.303047,107.325485 
	C82.303047,107.325485 82.160416,107.547592 81.658737,107.898468 
	C76.095245,114.874344 70.431870,121.773300 64.988403,128.841599 
	C52.453056,145.118652 42.580254,163.002151 34.731525,181.895569 
	C30.346643,192.450851 27.453371,203.625778 23.310516,214.939865 
	C23.218660,215.626083 23.126804,216.312302 22.826727,217.298416 
	C22.826727,217.298416 22.899132,217.656281 22.296829,218.092972 
	C22.199564,219.064438 22.102299,220.035919 21.793842,221.279297 
	C21.793842,221.279297 21.890261,221.609787 21.292688,222.059280 
	C21.214487,223.035782 21.136286,224.012299 20.866781,225.336090 
	C20.866781,225.336090 20.917767,225.729263 20.285845,226.228409 
	C20.173166,227.827606 20.060486,229.426804 19.740589,231.263046 
	C19.740589,231.263046 19.884048,231.543304 19.281818,232.007980 
	C19.210764,233.000916 19.139709,233.993851 18.860540,235.527710 
	C18.874870,235.911057 18.889200,236.294388 18.267717,237.216385 
	C18.153282,239.154648 18.038847,241.092926 17.727945,243.261688 
	C17.727945,243.261688 17.884007,243.521255 17.247297,244.075317 
	C17.070129,246.015228 16.892960,247.955154 16.123951,250.447266 
z"/>
<path fill="#864B25" opacity="1.000000" stroke="none" 
	d="
M100.919456,88.765831 
	C113.826820,75.043808 129.422989,64.779327 145.262299,54.963913 
	C169.776596,39.772724 196.299561,29.231478 224.360291,22.630854 
	C240.289612,18.883854 256.367828,16.344723 272.796875,15.618634 
	C307.882629,14.067999 341.906921,18.839912 374.973572,30.757477 
	C406.818420,42.234699 435.440002,59.082249 460.961914,81.289665 
	C480.060333,97.907730 497.418335,116.109215 511.219208,137.410767 
	C526.599487,161.150146 539.337280,186.166153 546.106689,214.647903 
	C545.767334,216.706680 545.838379,218.245590 545.123474,219.188629 
	C540.567383,225.198624 540.872253,232.150070 541.079346,239.060394 
	C541.187439,242.668167 541.783447,246.259338 541.960144,249.867752 
	C542.073792,252.188187 541.831238,254.209229 538.330750,253.458817 
	C537.505737,253.281937 535.766846,255.353943 535.163940,256.709625 
	C534.534912,258.124054 534.770142,259.922821 534.627502,261.553528 
	C534.147705,261.558105 533.667969,261.562683 533.188171,261.567230 
	C532.792053,259.901855 532.564636,258.170532 531.947144,256.591736 
	C531.441711,255.299423 530.471436,254.188934 529.573608,252.647598 
	C528.934387,249.536407 528.626099,246.720932 527.880859,244.026276 
	C526.474243,238.940231 524.816101,233.923752 523.232605,228.578964 
	C523.223328,227.879440 523.243896,227.479309 523.451904,226.921555 
	C523.851685,226.481247 523.908936,226.170044 523.827637,225.443893 
	C523.362366,222.987976 522.924805,220.907028 522.391968,218.850784 
	C517.789429,201.087845 510.941650,184.175552 501.830750,168.306549 
	C494.800964,156.062302 488.214081,143.345352 476.873413,133.779160 
	C476.365631,132.732117 476.028442,131.944107 475.498047,131.320389 
	C458.534637,111.372208 439.378448,93.857323 417.499756,79.413300 
	C415.232178,77.916260 412.494202,77.131805 409.677307,75.861221 
	C400.943390,70.476555 392.855652,64.523674 383.964935,60.235550 
	C376.135132,56.459122 367.407806,54.543579 358.825897,51.551727 
	C355.450470,50.215553 352.378418,48.938583 349.193207,48.082989 
	C322.269592,40.850876 295.004211,37.317913 267.054749,39.859772 
	C247.830139,41.608150 229.071777,45.180264 210.551056,51.951790 
	C203.587982,54.043877 196.640060,55.289909 190.538635,58.269436 
	C181.068741,62.893890 172.175476,68.699127 162.658508,73.982529 
	C156.479294,77.603806 150.679306,81.246361 144.542664,84.960251 
	C127.089905,97.098610 112.052338,111.482628 97.886513,126.810768 
	C95.932457,128.925156 94.625519,131.637589 92.820831,134.355103 
	C89.079979,138.257919 85.537300,141.878815 81.530350,145.377869 
	C80.081688,144.550644 78.274734,143.880783 78.242470,143.134216 
	C77.973907,136.919876 77.266136,130.751953 81.283684,125.002411 
	C84.242981,120.767334 86.017113,115.704109 88.319351,111.009911 
	C87.932114,110.732254 87.544884,110.454597 87.157646,110.176941 
	C85.360100,111.023834 83.562553,111.870720 81.685829,112.754906 
	C81.865410,110.784508 82.012909,109.166054 82.160416,107.547592 
	C82.160416,107.547592 82.303047,107.325485 82.754486,107.451988 
	C83.776947,106.648796 84.347969,105.719093 84.918991,104.789398 
	C85.675171,103.899872 86.431358,103.010338 87.824089,102.013763 
	C91.839745,99.440605 96.268684,97.848694 96.249504,92.552864 
	C96.249504,92.552864 96.384727,92.394608 96.804955,92.511490 
	C97.782959,91.994583 98.340744,91.360794 98.898521,90.727013 
	C98.904594,90.404404 99.050232,90.167664 99.820999,89.869781 
	C100.510857,89.403786 100.715157,89.084808 100.919456,88.765831 
z"/>
<path fill="#834A24" opacity="1.000000" stroke="none" 
	d="
M529.707214,252.997833 
	C530.471436,254.188934 531.441711,255.299423 531.947144,256.591736 
	C532.564636,258.170532 532.792053,259.901855 533.188171,261.567230 
	C533.667969,261.562683 534.147705,261.558105 534.627502,261.553528 
	C534.770142,259.922821 534.534912,258.124054 535.163940,256.709625 
	C535.766846,255.353943 537.505737,253.281937 538.330750,253.458817 
	C541.831238,254.209229 542.073792,252.188187 541.960144,249.867752 
	C541.783447,246.259338 541.187439,242.668167 541.079346,239.060394 
	C540.872253,232.150070 540.567383,225.198624 545.123474,219.188629 
	C545.838379,218.245590 545.767334,216.706680 546.094360,215.027283 
	C548.761230,226.972397 552.609802,239.224564 553.728882,251.721176 
	C555.252625,268.737915 555.698425,285.996735 554.757019,303.049622 
	C553.720947,321.817017 549.559143,340.216858 544.271912,358.375977 
	C535.301941,389.183319 521.067017,417.157318 501.459625,442.477570 
	C469.578033,483.648346 429.894928,514.254883 380.787323,532.389709 
	C354.108307,542.242004 326.709808,548.116821 297.380798,549.197632 
	C288.315796,549.311340 280.176422,549.570557 272.037079,549.829773 
	C269.958832,549.587769 267.880585,549.345825 265.619537,548.747253 
	C268.967224,546.458862 272.497742,544.527039 276.338928,542.425293 
	C275.060699,540.809937 273.918121,539.910095 273.509796,538.751465 
	C272.085236,534.709106 269.714081,534.117310 265.531464,534.793335 
	C260.025970,535.683044 254.512802,535.389832 249.830841,530.763306 
	C247.483398,528.443604 243.587646,527.074951 240.199875,526.572510 
	C235.456390,525.869019 230.533493,526.370789 225.687347,526.368408 
	C224.885574,526.368042 223.732391,526.093201 223.337280,526.509949 
	C220.038910,529.988953 217.177139,527.741760 214.140640,526.091248 
	C210.356049,524.034058 207.541916,519.890747 202.436539,520.568542 
	C202.084991,520.615234 201.481888,520.101929 201.276169,519.704102 
	C199.358292,515.995483 195.746674,514.884583 192.178604,513.799744 
	C186.673492,512.125916 181.175842,510.377411 175.579147,509.071472 
	C171.403244,508.096985 166.579956,508.848022 164.733932,503.374176 
	C164.415634,502.430359 162.920547,501.947662 162.196457,501.065308 
	C159.077133,497.264313 153.683441,494.960571 154.346680,489.018066 
	C173.893570,501.061188 194.397934,510.009674 216.066376,516.497620 
	C246.313599,525.554321 277.143982,527.750183 308.423615,525.064331 
	C338.905945,522.446960 367.930176,514.211548 395.115692,500.320068 
	C429.380402,482.811188 458.313782,458.592621 481.668182,427.947327 
	C513.731750,385.873993 530.165710,338.294128 530.837463,285.395325 
	C530.974548,274.602692 530.109985,263.797333 529.707214,252.997833 
z"/>
<path fill="#874C26" opacity="1.000000" stroke="none" 
	d="
M154.042419,488.841125 
	C153.683441,494.960571 159.077133,497.264313 162.196457,501.065308 
	C162.920547,501.947662 164.415634,502.430359 164.733932,503.374176 
	C166.579956,508.848022 171.403244,508.096985 175.579147,509.071472 
	C181.175842,510.377411 186.673492,512.125916 192.178604,513.799744 
	C195.746674,514.884583 199.358292,515.995483 201.276169,519.704102 
	C201.481888,520.101929 202.084991,520.615234 202.436539,520.568542 
	C207.541916,519.890747 210.356049,524.034058 214.140640,526.091248 
	C217.177139,527.741760 220.038910,529.988953 223.337280,526.509949 
	C223.732391,526.093201 224.885574,526.368042 225.687347,526.368408 
	C230.533493,526.370789 235.456390,525.869019 240.199875,526.572510 
	C243.587646,527.074951 247.483398,528.443604 249.830841,530.763306 
	C254.512802,535.389832 260.025970,535.683044 265.531464,534.793335 
	C269.714081,534.117310 272.085236,534.709106 273.509796,538.751465 
	C273.918121,539.910095 275.060699,540.809937 276.338928,542.425293 
	C272.497742,544.527039 268.967224,546.458862 265.226471,548.655945 
	C264.559937,548.963684 264.103638,549.006104 263.097107,548.728394 
	C261.374237,548.548401 260.201630,548.688538 259.028992,548.828613 
	C245.887848,546.578491 232.582245,545.021118 219.636337,541.948303 
	C180.792145,532.728210 145.668228,515.679626 114.628876,490.388153 
	C84.703667,466.004425 60.669765,436.773315 42.969849,402.516693 
	C30.608597,378.592529 21.794910,353.351868 17.680029,326.612030 
	C17.632940,326.306000 17.375240,326.032410 17.428062,325.122498 
	C17.451797,323.338745 17.263319,322.176208 17.074841,321.013641 
	C16.986639,320.645844 16.898439,320.278076 16.883312,319.147461 
	C16.305639,312.921600 15.654896,307.458588 15.004152,301.995544 
	C14.910686,301.591736 14.817222,301.187958 15.044047,300.224304 
	C15.516283,293.905487 15.712891,288.146759 15.744409,282.387085 
	C15.747258,281.866486 14.686159,281.340027 14.119154,280.816284 
	C14.170449,280.165649 14.221745,279.515045 14.611191,278.268494 
	C15.302146,274.781799 15.654950,271.890961 16.353773,269.035095 
	C18.193874,270.017975 19.687958,270.965942 22.246271,272.589111 
	C23.948210,268.881683 25.340027,265.489227 27.054159,262.268280 
	C27.908682,260.662567 29.084856,258.622833 30.583899,258.085083 
	C34.265396,256.764465 35.802155,254.542694 36.051533,250.735107 
	C36.547840,243.157349 36.867962,235.514008 38.188995,228.062302 
	C39.154861,222.614014 41.572968,217.417923 43.403587,212.130127 
	C44.545586,208.831421 45.870354,205.595215 46.979794,202.286255 
	C47.878273,199.606461 48.577816,196.859970 49.428013,193.927780 
	C51.777660,194.974792 53.079887,195.555069 54.317371,196.454773 
	C54.125732,197.188293 53.998837,197.602356 53.663963,198.177856 
	C53.340782,198.664825 53.225578,198.990387 53.122543,199.685623 
	C52.181053,202.736801 51.227398,205.418304 49.898994,208.114075 
	C47.097443,209.691696 45.834831,211.504272 48.194729,214.466232 
	C48.039848,215.553162 47.935387,216.277039 47.478947,217.085312 
	C46.766396,219.786469 46.405823,222.403214 46.043049,225.419342 
	C36.975666,256.379791 37.026436,287.518799 41.317577,318.652985 
	C45.161694,346.543732 54.987061,372.616638 68.184509,397.487915 
	C83.893593,427.092499 105.966408,451.237091 131.615219,472.329651 
	C138.775070,478.217621 146.549774,483.357849 154.042419,488.841125 
z"/>
<path fill="#844C26" opacity="1.000000" stroke="none" 
	d="
M54.382114,196.135345 
	C53.079887,195.555069 51.777660,194.974792 49.428013,193.927780 
	C48.577816,196.859970 47.878273,199.606461 46.979794,202.286255 
	C45.870354,205.595215 44.545586,208.831421 43.403587,212.130127 
	C41.572968,217.417923 39.154861,222.614014 38.188995,228.062302 
	C36.867962,235.514008 36.547840,243.157349 36.051533,250.735107 
	C35.802155,254.542694 34.265396,256.764465 30.583899,258.085083 
	C29.084856,258.622833 27.908682,260.662567 27.054159,262.268280 
	C25.340027,265.489227 23.948210,268.881683 22.246271,272.589111 
	C19.687958,270.965942 18.193874,270.017975 16.351383,268.569641 
	C15.962786,264.568878 15.922593,261.068512 15.882401,257.568115 
	C15.882401,257.568115 15.747536,257.277557 16.131233,256.918579 
	C17.010098,254.373062 17.505264,252.186539 18.002159,249.540192 
	C17.963926,247.227341 17.923967,245.374298 17.884007,243.521255 
	C17.884007,243.521255 17.727945,243.261688 18.132126,242.877319 
	C18.658714,240.554550 18.781120,238.616135 18.903526,236.677734 
	C18.889200,236.294388 18.874870,235.911057 19.233728,235.001770 
	C19.699293,233.498322 19.791672,232.520813 19.884048,231.543304 
	C19.884048,231.543304 19.740589,231.263046 20.140358,230.882294 
	C20.666006,228.910782 20.791887,227.320023 20.917767,225.729263 
	C20.917767,225.729263 20.866781,225.336090 21.230911,224.914093 
	C21.693447,223.531342 21.791855,222.570557 21.890261,221.609787 
	C21.890261,221.609787 21.793842,221.279297 22.175625,220.903229 
	C22.671314,219.570206 22.785223,218.613251 22.899132,217.656281 
	C22.899132,217.656281 22.826727,217.298416 23.192719,216.921143 
	C23.668459,215.869751 23.778206,215.195618 23.887953,214.521484 
	C27.453371,203.625778 30.346643,192.450851 34.731525,181.895569 
	C42.580254,163.002151 52.453056,145.118652 64.988403,128.841599 
	C70.431870,121.773300 76.095245,114.874344 81.909576,107.723030 
	C82.012909,109.166054 81.865410,110.784508 81.685829,112.754906 
	C83.562553,111.870720 85.360100,111.023834 87.157646,110.176941 
	C87.544884,110.454597 87.932114,110.732254 88.319351,111.009911 
	C86.017113,115.704109 84.242981,120.767334 81.283684,125.002411 
	C77.266136,130.751953 77.973907,136.919876 78.242470,143.134216 
	C78.274734,143.880783 80.081688,144.550644 81.513672,145.751968 
	C80.273193,148.673615 78.327766,150.961273 76.939857,153.548035 
	C69.345039,167.703262 61.887093,181.931915 54.382114,196.135345 
z"/>
<path fill="#774621" opacity="1.000000" stroke="none" 
	d="
M14.043056,281.225586 
	C14.686159,281.340027 15.747258,281.866486 15.744409,282.387085 
	C15.712891,288.146759 15.516283,293.905487 15.037213,299.910614 
	C14.462379,293.982788 14.214670,287.808807 14.043056,281.225586 
z"/>
<path fill="#774621" opacity="1.000000" stroke="none" 
	d="
M15.553312,257.872620 
	C15.922593,261.068512 15.962786,264.568878 16.005367,268.534729 
	C15.654950,271.890961 15.302146,274.781799 14.915516,278.116638 
	C14.600398,275.878876 14.020758,273.187408 14.106952,270.517456 
	C14.239996,266.396301 14.828753,262.289825 15.553312,257.872620 
z"/>
<path fill="#724118" opacity="1.000000" stroke="none" 
	d="
M272.498840,549.898743 
	C280.176422,549.570557 288.315796,549.311340 296.956146,549.081055 
	C291.772034,549.413513 286.088806,549.761108 280.400970,550.000183 
	C277.925659,550.104309 275.441040,549.985413 272.498840,549.898743 
z"/>
<path fill="#844C26" opacity="1.000000" stroke="none" 
	d="
M95.996948,92.730156 
	C96.268684,97.848694 91.839745,99.440605 88.098343,101.903961 
	C90.405487,98.903290 93.074944,95.905365 95.996948,92.730156 
z"/>
<path fill="#774621" opacity="1.000000" stroke="none" 
	d="
M14.931869,302.444641 
	C15.654896,307.458588 16.305639,312.921600 16.926411,318.864502 
	C16.217487,313.860840 15.538535,308.377289 14.931869,302.444641 
z"/>
<path fill="#774621" opacity="1.000000" stroke="none" 
	d="
M18.000429,250.000000 
	C17.505264,252.186539 17.010098,254.373062 16.229643,256.792236 
	C16.004219,254.832321 16.064085,252.639786 16.740688,250.201660 
	C17.571760,249.970703 17.786093,249.985352 18.000429,250.000000 
z"/>
<path fill="#72441E" opacity="1.000000" stroke="none" 
	d="
M18.585621,236.947052 
	C18.781120,238.616135 18.658714,240.554550 18.230360,242.762070 
	C18.038847,241.092926 18.153282,239.154648 18.585621,236.947052 
z"/>
<path fill="#72441E" opacity="1.000000" stroke="none" 
	d="
M18.002157,249.540192 
	C17.786093,249.985352 17.571760,249.970703 17.036608,249.925552 
	C16.892960,247.955154 17.070129,246.015228 17.565651,243.798279 
	C17.923967,245.374298 17.963926,247.227341 18.002157,249.540192 
z"/>
<path fill="#72441E" opacity="1.000000" stroke="none" 
	d="
M20.601807,225.978836 
	C20.791887,227.320023 20.666006,228.910782 20.243965,230.763763 
	C20.060486,229.426804 20.173166,227.827606 20.601807,225.978836 
z"/>
<path fill="#844C26" opacity="1.000000" stroke="none" 
	d="
M84.650429,104.903839 
	C84.347969,105.719093 83.776947,106.648796 82.859253,107.371735 
	C83.135681,106.449402 83.758774,105.733833 84.650429,104.903839 
z"/>
<path fill="#834A24" opacity="1.000000" stroke="none" 
	d="
M259.418579,548.906677 
	C260.201630,548.688538 261.374237,548.548401 262.760986,548.646912 
	C261.919434,548.918579 260.863800,548.951660 259.418579,548.906677 
z"/>
<path fill="#844C26" opacity="1.000000" stroke="none" 
	d="
M98.612366,90.800064 
	C98.340744,91.360794 97.782959,91.994583 96.884232,92.444046 
	C97.137581,91.797523 97.731888,91.335320 98.612366,90.800064 
z"/>
<path fill="#774621" opacity="1.000000" stroke="none" 
	d="
M17.013226,321.406067 
	C17.263319,322.176208 17.451797,323.338745 17.413593,324.729980 
	C17.108479,323.905273 17.030043,322.851898 17.013226,321.406067 
z"/>
<path fill="#72441E" opacity="1.000000" stroke="none" 
	d="
M22.597980,217.874634 
	C22.785223,218.613251 22.671314,219.570206 22.281219,220.767273 
	C22.102299,220.035919 22.199564,219.064438 22.597980,217.874634 
z"/>
<path fill="#72441E" opacity="1.000000" stroke="none" 
	d="
M19.582933,231.775635 
	C19.791672,232.520813 19.699293,233.498322 19.337786,234.731308 
	C19.139709,233.993851 19.210764,233.000916 19.582933,231.775635 
z"/>
<path fill="#72441E" opacity="1.000000" stroke="none" 
	d="
M21.591475,221.834534 
	C21.791855,222.570557 21.693447,223.531342 21.326563,224.740448 
	C21.136286,224.012299 21.214487,223.035782 21.591475,221.834534 
z"/>
<path fill="#72441E" opacity="1.000000" stroke="none" 
	d="
M23.599236,214.730682 
	C23.778206,215.195618 23.668459,215.869751 23.296829,216.771210 
	C23.126804,216.312302 23.218660,215.626083 23.599236,214.730682 
z"/>
<path fill="#844C26" opacity="1.000000" stroke="none" 
	d="
M100.653290,88.875153 
	C100.715157,89.084808 100.510857,89.403786 100.033241,89.823036 
	C99.968987,89.610359 100.178055,89.297409 100.653290,88.875153 
z"/>
<path fill="#FEFEFE" opacity="1.000000" stroke="none" 
	d="
M54.317371,196.454773 
	C61.887093,181.931915 69.345039,167.703262 76.939857,153.548035 
	C78.327766,150.961273 80.273193,148.673615 81.977936,145.873779 
	C85.537300,141.878815 89.079979,138.257919 93.220703,134.359711 
	C107.696625,129.241257 121.665840,128.914871 135.714737,133.620468 
	C136.978378,116.344124 142.380722,100.925835 152.393433,86.868645 
	C156.135208,82.466988 159.586487,78.235397 163.037766,74.003799 
	C172.175476,68.699127 181.068741,62.893890 190.538635,58.269436 
	C196.640060,55.289909 203.587982,54.043877 211.015594,52.042191 
	C242.112167,50.865135 266.674530,62.252941 285.719086,85.808876 
	C286.542603,84.902359 287.145020,84.325912 287.647827,83.672768 
	C295.780273,73.109146 306.336456,65.645592 318.227783,59.962311 
	C331.135040,53.793468 344.870026,51.569126 359.076813,51.806263 
	C367.407806,54.543579 376.135132,56.459122 383.964935,60.235550 
	C392.855652,64.523674 400.943390,70.476555 409.763184,76.189682 
	C424.847046,92.857445 434.419861,111.241013 434.276245,132.748550 
	C442.592926,131.846054 450.703888,130.213348 458.788361,130.335297 
	C464.861176,130.426910 470.900024,132.772583 476.953979,134.114777 
	C488.214081,143.345352 494.800964,156.062302 501.830750,168.306549 
	C510.941650,184.175552 517.789429,201.087845 522.391968,218.850784 
	C522.924805,220.907028 523.362366,222.987976 523.593323,225.572845 
	C523.316589,226.418549 523.290527,226.748871 523.264465,227.079193 
	C523.243896,227.479309 523.223328,227.879440 523.105042,228.983551 
	C522.683167,230.960342 522.263062,232.217255 522.049377,233.508347 
	C519.432129,249.320145 515.618774,264.646942 507.177277,278.630463 
	C497.809509,294.148407 486.403717,307.419250 469.846802,315.448090 
	C466.555847,317.043976 465.836578,319.000671 465.957581,322.297607 
	C466.167419,328.015503 466.648438,333.862823 465.762878,339.457550 
	C461.894928,363.894867 452.149780,385.697266 433.675629,402.558868 
	C421.015808,414.113647 407.564209,424.856323 393.979401,435.330231 
	C368.898468,454.667633 342.595825,472.230286 314.127441,486.247650 
	C301.726318,492.353760 288.763245,495.880188 274.568298,492.125336 
	C258.498352,487.874542 244.523438,479.371948 230.695160,470.857452 
	C212.211136,459.476227 194.232101,447.231384 176.449478,434.767761 
	C161.487518,424.281097 146.779037,413.436615 134.220963,399.886475 
	C122.776466,387.537872 114.033951,373.669769 109.559509,357.565613 
	C106.763680,347.502960 104.914932,336.948914 104.508789,326.542511 
	C104.291000,320.962036 105.342392,317.602997 98.806007,314.519043 
	C81.484489,306.346558 69.632835,292.110596 61.190277,275.197784 
	C52.543152,257.875244 47.455109,239.550583 47.846886,219.607178 
	C47.872158,218.490479 47.851543,217.745697 47.830925,217.000900 
	C47.935387,216.277039 48.039848,215.553162 48.483986,214.251129 
	C49.307018,211.815247 49.790379,209.957520 50.273743,208.099808 
	C51.227398,205.418304 52.181053,202.736801 53.374657,199.557861 
	C53.700386,198.712433 53.786163,198.364426 53.871937,198.016434 
	C53.998837,197.602356 54.125732,197.188293 54.317371,196.454773 
M398.123810,345.495636 
	C401.289642,336.072845 402.069519,326.484375 401.216827,316.545380 
	C398.419830,283.943390 372.009338,258.745667 340.197784,258.649017 
	C320.168884,258.588165 303.664703,265.497162 291.633240,281.882904 
	C289.666382,284.561584 288.058411,287.503784 286.773468,289.546844 
	C280.695129,282.764923 275.706573,275.260620 268.961578,270.014526 
	C242.217636,249.213928 201.181671,257.009125 181.913437,285.918121 
	C163.864471,312.997772 167.185410,349.541382 190.165039,372.578522 
	C201.198990,383.640106 212.759155,394.179291 224.147964,404.883850 
	C240.627350,420.373016 257.123932,435.844513 273.700623,451.229309 
	C281.676208,458.631409 289.909576,459.028381 297.156097,452.332031 
	C311.798920,438.800842 326.368073,425.188629 340.862640,411.498657 
	C352.231140,400.761200 363.292206,389.695007 374.767120,379.074432 
	C384.856018,369.736725 393.446320,359.475342 398.123810,345.495636 
M250.530548,214.096222 
	C259.854401,207.479416 265.251526,198.013504 268.885834,187.580917 
	C274.549835,171.321976 274.549438,154.552353 271.326935,137.868988 
	C268.043518,120.870346 260.816010,105.868408 246.640564,95.012695 
	C228.485626,81.109436 198.758743,81.683632 183.002151,105.350624 
	C165.450729,131.713501 166.830643,176.983414 188.419113,203.222916 
	C205.236115,223.662949 229.751724,228.464447 250.530548,214.096222 
M304.022308,191.261490 
	C305.114136,193.479507 306.138977,195.733521 307.308411,197.909851 
	C316.646027,215.287354 333.330811,224.397964 351.875122,222.109451 
	C369.974640,219.875824 381.585175,208.669235 389.870026,193.539322 
	C400.845978,173.494995 403.082031,151.923645 398.694275,129.800415 
	C395.854858,115.483948 389.173065,102.853172 377.137756,93.953903 
	C356.674591,78.822861 327.638153,84.870232 313.323669,107.089165 
	C305.316223,119.518242 300.162903,133.137390 299.143311,147.890549 
	C298.148315,162.287735 298.023102,176.773895 304.022308,191.261490 
M131.140762,250.502914 
	C127.667427,245.923569 123.347252,241.749603 120.916344,236.671280 
	C117.132874,228.767395 120.442955,220.445480 128.121124,217.883972 
	C132.311569,216.485992 137.428848,215.848434 141.604660,216.915863 
	C147.308014,218.373779 152.512634,221.782822 158.175461,224.471466 
	C158.281372,224.207367 158.922256,223.348572 158.928101,222.485489 
	C159.043213,205.450226 155.478897,189.520996 143.849716,176.401642 
	C133.620926,164.862137 120.614052,161.325699 105.945511,165.385437 
	C92.576134,169.085617 85.525276,179.218933 83.119759,192.165649 
	C78.381157,217.669312 83.175888,241.533997 97.974968,262.980255 
	C105.539711,273.942780 114.491234,283.284760 129.092453,284.532654 
	C145.828812,285.963043 160.796616,269.883270 156.883286,253.907578 
	C148.119293,256.470337 139.608322,256.088562 131.140762,250.502914 
M454.494080,163.877670 
	C444.531891,163.609940 436.127869,166.984634 428.987244,174.052429 
	C420.490570,182.462418 416.230957,192.918701 414.019409,204.272354 
	C412.716980,210.958923 412.442963,217.845810 411.706421,224.642609 
	C412.237305,224.759079 412.768188,224.875565 413.299072,224.992035 
	C414.870392,223.854416 416.412384,222.673477 418.018280,221.586990 
	C423.658600,217.770966 429.697754,215.385071 436.709991,216.014481 
	C445.157654,216.772675 452.156830,224.698212 450.762848,232.169617 
	C449.213806,240.472458 444.448944,246.483337 437.540802,251.117737 
	C430.103210,256.107330 422.109375,256.254852 413.311676,253.907089 
	C413.541351,257.232025 413.582581,260.037201 413.951508,262.798584 
	C415.838257,276.919464 427.648865,286.017059 441.752014,284.308685 
	C451.222656,283.161469 459.238678,278.684601 465.377197,271.822540 
	C485.261230,249.594803 492.973450,223.430588 487.890991,194.026245 
	C484.911499,176.788666 471.264404,163.120590 454.494080,163.877670 
z"/>
<path fill="#C78A5F" opacity="1.000000" stroke="none" 
	d="
M47.800995,219.979080 
	C47.455109,239.550583 52.543152,257.875244 61.190277,275.197784 
	C69.632835,292.110596 81.484489,306.346558 98.806007,314.519043 
	C105.342392,317.602997 104.291000,320.962036 104.508789,326.542511 
	C104.914932,336.948914 106.763680,347.502960 109.559509,357.565613 
	C114.033951,373.669769 122.776466,387.537872 134.220963,399.886475 
	C146.779037,413.436615 161.487518,424.281097 176.449478,434.767761 
	C194.232101,447.231384 212.211136,459.476227 230.695160,470.857452 
	C244.523438,479.371948 258.498352,487.874542 274.568298,492.125336 
	C288.763245,495.880188 301.726318,492.353760 314.127441,486.247650 
	C342.595825,472.230286 368.898468,454.667633 393.979401,435.330231 
	C407.564209,424.856323 421.015808,414.113647 433.675629,402.558868 
	C452.149780,385.697266 461.894928,363.894867 465.762878,339.457550 
	C466.648438,333.862823 466.167419,328.015503 465.957581,322.297607 
	C465.836578,319.000671 466.555847,317.043976 469.846802,315.448090 
	C486.403717,307.419250 497.809509,294.148407 507.177277,278.630463 
	C515.618774,264.646942 519.432129,249.320145 522.049377,233.508347 
	C522.263062,232.217255 522.683167,230.960342 523.134888,229.282959 
	C524.816101,233.923752 526.474243,238.940231 527.880859,244.026276 
	C528.626099,246.720932 528.934387,249.536407 529.573608,252.647598 
	C530.109985,263.797333 530.974548,274.602692 530.837463,285.395325 
	C530.165710,338.294128 513.731750,385.873993 481.668182,427.947327 
	C458.313782,458.592621 429.380402,482.811188 395.115692,500.320068 
	C367.930176,514.211548 338.905945,522.446960 308.423615,525.064331 
	C277.143982,527.750183 246.313599,525.554321 216.066376,516.497620 
	C194.397934,510.009674 173.893570,501.061188 154.346680,489.018036 
	C146.549774,483.357849 138.775070,478.217621 131.615219,472.329651 
	C105.966408,451.237091 83.893593,427.092499 68.184509,397.487915 
	C54.987061,372.616638 45.161694,346.543732 41.317577,318.652985 
	C37.026436,287.518799 36.975666,256.379791 46.182625,225.104828 
	C46.816597,222.920319 47.308796,221.449692 47.800995,219.979080 
z"/>
<path fill="#C6885D" opacity="1.000000" stroke="none" 
	d="
M358.825897,51.551727 
	C344.870026,51.569126 331.135040,53.793468 318.227783,59.962311 
	C306.336456,65.645592 295.780273,73.109146 287.647827,83.672768 
	C287.145020,84.325912 286.542603,84.902359 285.719086,85.808876 
	C266.674530,62.252941 242.112167,50.865135 211.410126,51.973068 
	C229.071777,45.180264 247.830139,41.608150 267.054749,39.859772 
	C295.004211,37.317913 322.269592,40.850876 349.193207,48.082989 
	C352.378418,48.938583 355.450470,50.215553 358.825897,51.551727 
z"/>
<path fill="#C5875D" opacity="1.000000" stroke="none" 
	d="
M476.873413,133.779175 
	C470.900024,132.772583 464.861176,130.426910 458.788361,130.335297 
	C450.703888,130.213348 442.592926,131.846054 434.276245,132.748550 
	C434.419861,111.241013 424.847046,92.857445 410.060333,76.345177 
	C412.494202,77.131805 415.232178,77.916260 417.499756,79.413300 
	C439.378448,93.857323 458.534637,111.372208 475.498047,131.320389 
	C476.028442,131.944107 476.365631,132.732117 476.873413,133.779175 
z"/>
<path fill="#C3875C" opacity="1.000000" stroke="none" 
	d="
M152.102951,87.038704 
	C142.380722,100.925835 136.978378,116.344124 135.714737,133.620468 
	C121.665840,128.914871 107.696625,129.241257 93.418869,134.077759 
	C94.625519,131.637589 95.932457,128.925156 97.886513,126.810768 
	C112.052338,111.482628 127.089905,97.098610 144.885300,85.129822 
	C147.744034,85.831604 149.923492,86.435158 152.102951,87.038704 
z"/>
<path fill="#B77E4F" opacity="1.000000" stroke="none" 
	d="
M152.393433,86.868645 
	C149.923492,86.435158 147.744034,85.831604 145.221954,85.058487 
	C150.679306,81.246361 156.479294,77.603806 162.658508,73.982529 
	C159.586487,78.235397 156.135208,82.466988 152.393433,86.868645 
z"/>
<path fill="#C78A5F" opacity="1.000000" stroke="none" 
	d="
M523.451904,226.921555 
	C523.290527,226.748871 523.316589,226.418549 523.576904,225.959274 
	C523.908936,226.170044 523.851685,226.481247 523.451904,226.921555 
z"/>
<path fill="#844C26" opacity="1.000000" stroke="none" 
	d="
M47.846878,219.607178 
	C47.308796,221.449692 46.816597,222.920319 46.184822,224.705444 
	C46.405823,222.403214 46.766396,219.786469 47.478951,217.085312 
	C47.851543,217.745697 47.872158,218.490479 47.846878,219.607178 
z"/>
<path fill="#844C26" opacity="1.000000" stroke="none" 
	d="
M49.898994,208.114075 
	C49.790379,209.957520 49.307018,211.815247 48.534409,213.888062 
	C45.834831,211.504272 47.097443,209.691696 49.898994,208.114075 
z"/>
<path fill="#844C26" opacity="1.000000" stroke="none" 
	d="
M53.663963,198.177856 
	C53.786163,198.364426 53.700386,198.712433 53.362492,199.188187 
	C53.225578,198.990387 53.340782,198.664825 53.663963,198.177856 
z"/>
<path fill="#481E01" opacity="1.000000" stroke="none" 
	d="
M398.065308,345.890442 
	C393.446320,359.475342 384.856018,369.736725 374.767120,379.074432 
	C363.292206,389.695007 352.231140,400.761200 340.862640,411.498657 
	C326.368073,425.188629 311.798920,438.800842 297.156097,452.332031 
	C289.909576,459.028381 281.676208,458.631409 273.700623,451.229309 
	C257.123932,435.844513 240.627350,420.373016 224.147964,404.883850 
	C212.759155,394.179291 201.198990,383.640106 190.165039,372.578522 
	C167.185410,349.541382 163.864471,312.997772 181.913437,285.918121 
	C201.181671,257.009125 242.217636,249.213928 268.961578,270.014526 
	C275.706573,275.260620 280.695129,282.764923 286.773468,289.546844 
	C288.058411,287.503784 289.666382,284.561584 291.633240,281.882904 
	C303.664703,265.497162 320.168884,258.588165 340.197784,258.649017 
	C372.009338,258.745667 398.419830,283.943390 401.216827,316.545380 
	C402.069519,326.484375 401.289642,336.072845 398.065308,345.890442 
z"/>
<path fill="#4A1E02" opacity="1.000000" stroke="none" 
	d="
M250.270386,214.349274 
	C229.751724,228.464447 205.236115,223.662949 188.419113,203.222916 
	C166.830643,176.983414 165.450729,131.713501 183.002151,105.350624 
	C198.758743,81.683632 228.485626,81.109436 246.640564,95.012695 
	C260.816010,105.868408 268.043518,120.870346 271.326935,137.868988 
	C274.549438,154.552353 274.549835,171.321976 268.885834,187.580917 
	C265.251526,198.013504 259.854401,207.479416 250.270386,214.349274 
M238.769638,160.949936 
	C235.848572,152.745972 231.667297,145.401794 223.561981,141.347595 
	C215.016556,137.073242 206.052353,141.478851 203.840134,150.707016 
	C201.208832,161.683228 208.190323,180.306061 217.435364,186.971863 
	C225.828995,193.023773 236.388382,189.945068 238.747192,179.901810 
	C240.098007,174.150314 238.982803,167.819641 238.769638,160.949936 
z"/>
<path fill="#491E02" opacity="1.000000" stroke="none" 
	d="
M303.958008,190.876358 
	C298.023102,176.773895 298.148315,162.287735 299.143311,147.890549 
	C300.162903,133.137390 305.316223,119.518242 313.323669,107.089165 
	C327.638153,84.870232 356.674591,78.822861 377.137756,93.953903 
	C389.173065,102.853172 395.854858,115.483948 398.694275,129.800415 
	C403.082031,151.923645 400.845978,173.494995 389.870026,193.539322 
	C381.585175,208.669235 369.974640,219.875824 351.875122,222.109451 
	C333.330811,224.397964 316.646027,215.287354 307.308411,197.909851 
	C306.138977,195.733521 305.114136,193.479507 303.958008,190.876358 
M355.805237,186.425247 
	C363.781097,178.549698 367.286041,168.643707 368.206482,157.800171 
	C368.946014,149.088150 365.274994,143.151520 358.409576,140.550079 
	C352.020813,138.129242 344.933960,140.739700 339.840454,147.684525 
	C334.034546,155.600739 331.371613,164.560013 332.002594,174.363953 
	C332.929932,188.772659 344.691772,194.322662 355.805237,186.425247 
z"/>
<path fill="#491E02" opacity="1.000000" stroke="none" 
	d="
M131.430817,250.726929 
	C139.608322,256.088562 148.119293,256.470337 156.883286,253.907578 
	C160.796616,269.883270 145.828812,285.963043 129.092453,284.532654 
	C114.491234,283.284760 105.539711,273.942780 97.974968,262.980255 
	C83.175888,241.533997 78.381157,217.669312 83.119759,192.165649 
	C85.525276,179.218933 92.576134,169.085617 105.945511,165.385437 
	C120.614052,161.325699 133.620926,164.862137 143.849716,176.401642 
	C155.478897,189.520996 159.043213,205.450226 158.928101,222.485489 
	C158.922256,223.348572 158.281372,224.207367 158.175461,224.471466 
	C152.512634,221.782822 147.308014,218.373779 141.604660,216.915863 
	C137.428848,215.848434 132.311569,216.485992 128.121124,217.883972 
	C120.442955,220.445480 117.132874,228.767395 120.916344,236.671280 
	C123.347252,241.749603 127.667427,245.923569 131.430817,250.726929 
z"/>
<path fill="#481E02" opacity="1.000000" stroke="none" 
	d="
M454.961121,163.883728 
	C471.264404,163.120590 484.911499,176.788666 487.890991,194.026245 
	C492.973450,223.430588 485.261230,249.594803 465.377197,271.822540 
	C459.238678,278.684601 451.222656,283.161469 441.752014,284.308685 
	C427.648865,286.017059 415.838257,276.919464 413.951508,262.798584 
	C413.582581,260.037201 413.541351,257.232025 413.311676,253.907089 
	C422.109375,256.254852 430.103210,256.107330 437.540802,251.117737 
	C444.448944,246.483337 449.213806,240.472458 450.762848,232.169617 
	C452.156830,224.698212 445.157654,216.772675 436.709991,216.014481 
	C429.697754,215.385071 423.658600,217.770966 418.018280,221.586990 
	C416.412384,222.673477 414.870392,223.854416 413.299072,224.992035 
	C412.768188,224.875565 412.237305,224.759079 411.706421,224.642609 
	C412.442963,217.845810 412.716980,210.958923 414.019409,204.272354 
	C416.230957,192.918701 420.490570,182.462418 428.987244,174.052429 
	C436.127869,166.984634 444.531891,163.609940 454.961121,163.883728 
z"/>
<path fill="#F9FBF0" opacity="1.000000" stroke="none" 
	d="
M238.873749,161.349823 
	C238.982803,167.819641 240.098007,174.150314 238.747192,179.901810 
	C236.388382,189.945068 225.828995,193.023773 217.435364,186.971863 
	C208.190323,180.306061 201.208832,161.683228 203.840134,150.707016 
	C206.052353,141.478851 215.016556,137.073242 223.561981,141.347595 
	C231.667297,145.401794 235.848572,152.745972 238.873749,161.349823 
z"/>
<path fill="#FAFBF0" opacity="1.000000" stroke="none" 
	d="
M355.515320,186.654144 
	C344.691772,194.322662 332.929932,188.772659 332.002594,174.363953 
	C331.371613,164.560013 334.034546,155.600739 339.840454,147.684525 
	C344.933960,140.739700 352.020813,138.129242 358.409576,140.550079 
	C365.274994,143.151520 368.946014,149.088150 368.206482,157.800171 
	C367.286041,168.643707 363.781097,178.549698 355.515320,186.654144 
z"/>
</svg>