<?xml version="1.0" encoding="UTF-8" standalone="no"?>
<svg
   xmlns:dc="http://purl.org/dc/elements/1.1/"
   xmlns:cc="http://creativecommons.org/ns#"
   xmlns:rdf="http://www.w3.org/1999/02/22-rdf-syntax-ns#"
   xmlns:svg="http://www.w3.org/2000/svg"
   xmlns="http://www.w3.org/2000/svg"
   viewBox="0 0 831.50665 831.50665"
   height="831.50665"
   width="831.50665"
   xml:space="preserve"
   id="svg2"
   version="1.1"><metadata
     id="metadata8"><rdf:RDF><cc:Work
         rdf:about=""><dc:format>image/svg+xml</dc:format><dc:type
           rdf:resource="http://purl.org/dc/dcmitype/StillImage" /></cc:Work></rdf:RDF></metadata><defs
     id="defs6" /><g
     transform="matrix(1.3333333,0,0,-1.3333333,0,831.50667)"
     id="g10"><g
       transform="scale(0.1)"
       id="g12"><path
         id="path14"
         style="fill:#231f20;fill-opacity:1;fill-rule:nonzero;stroke:none"
         d="m 4714.73,2265.53 c -0.05,-36.82 -29.94,-66.71 -66.75,-66.75 H 1268.97 c -36.81,0.04 -66.69,29.93 -66.74,66.75 v 2166.5 c 0.05,36.82 29.93,66.7 66.74,66.75 h 2030.52 v -225 H 1477.23 v -1812.5 h 2962.5 v 75 1031.25 h 275 z m -1235.45,-635.5 h -1041.6 l 241.74,418.75 h 558.11 z m 957.71,2854.3 -826.17,583.2 h 1652.34 z m -987.5,-766.8 v 1280.22 l 944.24,-666.5 c 25.93,-18.26 60.6,-18.26 86.52,0 l 944.24,666.5 V 3717.53 Z m 840.24,-1106.25 h -2662.5 v 1512.5 h 1672.26 v -481.25 c 0,-19.74 8.01,-39.06 21.97,-53.03 13.97,-13.96 33.31,-21.97 53.03,-21.97 h 915.24 z M 5570,5164.79 c -1.46,4.69 -3.42,8.89 -5.81,13.24 -1.37,2.54 -1.71,5.37 -3.42,7.76 -1.32,1.86 -3.27,2.78 -4.73,4.44 -1.37,1.65 -2.01,3.81 -3.52,5.33 -2.05,2.05 -4.83,2.93 -7.08,4.73 -4,3.18 -7.96,6.01 -12.45,8.25 -4.1,2.09 -8.16,3.47 -12.55,4.79 -4.93,1.46 -9.72,2.54 -14.8,2.98 -2.1,0.14 -4.05,1.22 -6.15,1.22 h -2125 c -2.1,0 -4.05,-1.08 -6.15,-1.22 -5.08,-0.44 -9.86,-1.52 -14.8,-2.98 -4.39,-1.32 -8.44,-2.7 -12.54,-4.79 -4.5,-2.24 -8.45,-5.07 -12.46,-8.25 -2.24,-1.8 -5.02,-2.68 -7.08,-4.73 -1.51,-1.52 -2.14,-3.68 -3.51,-5.33 -1.47,-1.66 -3.42,-2.58 -4.74,-4.44 -1.71,-2.39 -2.05,-5.22 -3.42,-7.76 -2.39,-4.35 -4.34,-8.55 -5.81,-13.24 -1.56,-4.88 -2.44,-9.66 -2.97,-14.64 -0.25,-2.64 -1.52,-4.98 -1.52,-7.62 V 4648.78 H 1268.97 c -119.72,-0.05 -216.69,-97.02 -216.74,-216.75 v -2166.5 c 0.05,-119.74 97.02,-216.71 216.74,-216.75 h 1237.31 l -263.43,-456.25 c -13.43,-23.2 -13.43,-51.82 0,-75 13.38,-23.2 38.14,-37.5 64.94,-37.5 h 650.69 650.68 c 26.81,0 51.56,14.3 64.94,37.5 13.43,23.18 13.43,51.8 0,75 l -263.43,456.25 h 1237.31 c 119.73,0.04 216.7,97.01 216.75,216.75 v 1302 h 634.76 c 19.73,0 39.06,8.01 53.03,21.97 13.96,13.97 21.97,33.29 21.97,53.03 v 1500 c 0,2.64 -1.27,4.98 -1.51,7.62 -0.54,4.98 -1.42,9.76 -2.98,14.64" /></g></g></svg>