<?xml version="1.0" encoding="UTF-8" standalone="no"?>
<svg
   xmlns:dc="http://purl.org/dc/elements/1.1/"
   xmlns:cc="http://creativecommons.org/ns#"
   xmlns:rdf="http://www.w3.org/1999/02/22-rdf-syntax-ns#"
   xmlns:svg="http://www.w3.org/2000/svg"
   xmlns="http://www.w3.org/2000/svg"
   viewBox="0 0 831.50665 831.50665"
   height="831.50665"
   width="831.50665"
   xml:space="preserve"
   id="svg2"
   version="1.1"><metadata
     id="metadata8"><rdf:RDF><cc:Work
         rdf:about=""><dc:format>image/svg+xml</dc:format><dc:type
           rdf:resource="http://purl.org/dc/dcmitype/StillImage" /></cc:Work></rdf:RDF></metadata><defs
     id="defs6" /><g
     transform="matrix(1.3333333,0,0,-1.3333333,0,831.50667)"
     id="g10"><g
       transform="scale(0.1)"
       id="g12"><path
         id="path14"
         style="fill:#231f20;fill-opacity:1;fill-rule:nonzero;stroke:none"
         d="m 2155.19,2939.91 c 155.05,30.66 245.54,233.58 202.1,453.25 -43.44,219.65 -204.35,372.87 -359.39,342.21 -155.06,-30.66 -245.55,-233.59 -202.11,-453.25 43.43,-219.66 204.34,-372.87 359.4,-342.21" /><path
         id="path16"
         style="fill:#231f20;fill-opacity:1;fill-rule:nonzero;stroke:none"
         d="m 4051.17,3735.37 c -155.05,30.66 -315.96,-122.56 -359.4,-342.21 -43.43,-219.67 47.06,-422.59 202.11,-453.25 155.06,-30.66 315.97,122.55 359.4,342.21 43.44,219.66 -47.05,422.59 -202.11,453.25" /><path
         id="path18"
         style="fill:#231f20;fill-opacity:1;fill-rule:nonzero;stroke:none"
         d="m 2680.98,3524.23 c 158.05,0 286.18,181.53 286.18,405.43 0,223.92 -128.13,405.44 -286.18,405.44 -158.05,0 -286.19,-181.52 -286.19,-405.44 0,-223.9 128.14,-405.43 286.19,-405.43" /><path
         id="path20"
         style="fill:#231f20;fill-opacity:1;fill-rule:nonzero;stroke:none"
         d="m 3368.09,3536.16 c 158.05,0 286.18,181.52 286.18,405.43 0,223.91 -128.13,405.43 -286.18,405.43 -158.07,0 -286.19,-181.52 -286.19,-405.43 0,-223.91 128.12,-405.43 286.19,-405.43" /><path
         id="path22"
         style="fill:#231f20;fill-opacity:1;fill-rule:nonzero;stroke:none"
         d="m 3413.37,3315.37 c -102.25,103.7 -244.12,158.53 -388.84,160.96 -144.71,-2.43 -286.58,-57.26 -388.84,-160.96 -126.62,-128.39 -168.2,-310.8 -265.84,-458.27 -138.17,-208.69 -408.88,-361.52 -337.01,-657.61 68.23,-281.07 412.61,-479.47 686.72,-376.54 82.54,30.99 157.36,84.89 244.47,98.95 20.69,3.34 40.72,4.32 60.5,4.35 19.79,-0.03 39.82,-1.01 60.51,-4.35 87.1,-14.06 161.93,-67.96 244.47,-98.95 274.1,-102.93 618.48,95.47 686.71,376.54 71.87,296.09 -198.83,448.92 -337.01,657.61 -97.64,147.47 -139.22,329.88 -265.84,458.27" /><path
         id="path24"
         style="fill:#231f20;fill-opacity:1;fill-rule:nonzero;stroke:none"
         d="m 3024.54,1071.2 c -1102.81,0 -2000,897.19 -2000,2000 0,1102.8 897.19,2000 2000,2000 1102.8,0 2000,-897.2 2000,-2000 0,-1102.81 -897.2,-2000 -2000,-2000 z m 0,4400.01 C 1699.05,5471.21 624.543,4396.68 624.543,3071.2 624.543,1745.71 1699.05,671.199 3024.54,671.199 c 1325.48,0 2400,1074.511 2400,2400.001 0,1325.48 -1074.52,2400.01 -2400,2400.01" /></g></g></svg>