<?xml version="1.0" encoding="UTF-8" standalone="no"?>
<svg
   xmlns:dc="http://purl.org/dc/elements/1.1/"
   xmlns:cc="http://creativecommons.org/ns#"
   xmlns:rdf="http://www.w3.org/1999/02/22-rdf-syntax-ns#"
   xmlns:svg="http://www.w3.org/2000/svg"
   xmlns="http://www.w3.org/2000/svg"
   viewBox="0 0 831.50665 831.50665"
   height="831.50665"
   width="831.50665"
   xml:space="preserve"
   id="svg2"
   version="1.1"><metadata
     id="metadata8"><rdf:RDF><cc:Work
         rdf:about=""><dc:format>image/svg+xml</dc:format><dc:type
           rdf:resource="http://purl.org/dc/dcmitype/StillImage" /></cc:Work></rdf:RDF></metadata><defs
     id="defs6" /><g
     transform="matrix(1.3333333,0,0,-1.3333333,0,831.50667)"
     id="g10"><g
       transform="scale(0.1)"
       id="g12"><path
         id="path14"
         style="fill:#231f20;fill-opacity:1;fill-rule:nonzero;stroke:none"
         d="m 4023.82,2768.79 c -353.28,228.08 -454.94,751.95 -945.41,752 -490.48,-0.05 -592.14,-523.92 -945.41,-752 -211.18,-136.48 -347.46,-360.3 -347.46,-614.89 0,-257.33 153.56,-507.72 381.05,-626.13 242,-126.02 465.24,5.72 707.81,67 75.59,19.04 332.42,19.04 408.01,0 242.58,-61.28 465.82,-193.02 707.81,-67 227.49,118.41 381.06,368.8 381.06,626.13 0,254.59 -136.28,478.41 -347.46,614.89" /><path
         id="path16"
         style="fill:#231f20;fill-opacity:1;fill-rule:nonzero;stroke:none"
         d="m 1885.29,2992.23 c 199.27,24.8 330.03,292.57 292,598.14 -37.99,305.58 -230.37,533.15 -429.69,508.4 -199.22,-24.8 -329.98,-292.58 -291.94,-598.14 37.98,-305.57 230.37,-533.16 429.63,-508.4" /><path
         id="path18"
         style="fill:#231f20;fill-opacity:1;fill-rule:nonzero;stroke:none"
         d="m 4409.22,4098.77 c -199.32,24.75 -391.7,-202.82 -429.69,-508.4 -38.04,-305.57 92.72,-573.34 291.99,-598.14 199.27,-24.76 391.65,202.83 429.64,508.4 38.04,305.56 -92.72,573.34 -291.94,598.14" /><path
         id="path20"
         style="fill:#231f20;fill-opacity:1;fill-rule:nonzero;stroke:none"
         d="m 2618.5,3651.02 c 200.88,0 363.67,249.61 363.67,557.51 0,307.91 -162.79,557.52 -363.67,557.52 -200.78,0 -363.58,-249.61 -363.58,-557.52 0,-307.9 162.8,-557.51 363.58,-557.51" /><path
         id="path22"
         style="fill:#231f20;fill-opacity:1;fill-rule:nonzero;stroke:none"
         d="m 3538.22,3651.02 c 200.88,0 363.67,249.61 363.67,557.51 0,307.91 -162.79,557.52 -363.67,557.52 -200.78,0 -363.57,-249.61 -363.57,-557.52 0,-307.9 162.79,-557.51 363.57,-557.51" /></g></g></svg>